{
  "asset": {
    "version": "2.0",
    "generator": "God's Eye Procedural Terrain Exporter"
  },
  "scene": 0,
  "scenes": [
    {
      "nodes": [
        0
      ]
    }
  ],
  "nodes": [
    {
      "mesh": 0,
      "name": "ReconstructedTerrainMesh"
    }
  ],
  "meshes": [
    {
      "name": "Terrain_And_Structure",
      "primitives": [
        {
          "attributes": {
            "POSITION": 0,
            "NORMAL": 1,
            "TEXCOORD_0": 2
          },
          "indices": 3,
          "material": 0
        }
      ]
    }
  ],
  "materials": [
    {
      "name": "TacticalTerrainMaterial",
      "pbrMetallicRoughness": {
        "baseColorFactor": [
          0.18,
          0.25,
          0.21,
          1
        ],
        "metallicFactor": 0.1,
        "roughnessFactor": 0.8
      }
    }
  ],
  "buffers": [
    {
      "uri": "data:application/octet-stream;base64,",
      "byteLength": 18912
    }
  ],
  "bufferViews": [
    {
      "buffer": 0,
      "byteOffset": 0,
      "byteLength": 5292,
      "target": 34962
    },
    {
      "buffer": 0,
      "byteOffset": 5292,
      "byteLength": 5292,
      "target": 34962
    },
    {
      "buffer": 0,
      "byteOffset": 10584,
      "byteLength": 3528,
      "target": 34962
    },
    {
      "buffer": 0,
      "byteOffset": 14112,
      "byteLength": 4800,
      "target": 34963
    }
  ],
  "accessors": [
    {
      "bufferView": 0,
      "byteOffset": 0,
      "componentType": 5126,
      "count": 441,
      "type": "VEC3",
      "max": [
        15,
        10,
        15
      ],
      "min": [
        -15,
        -5,
        -15
      ]
    },
    {
      "bufferView": 1,
      "byteOffset": 0,
      "componentType": 5126,
      "count": 441,
      "type": "VEC3"
    },
    {
      "bufferView": 2,
      "byteOffset": 0,
      "componentType": 5126,
      "count": 441,
      "type": "VEC2"
    },
    {
      "bufferView": 3,
      "byteOffset": 0,
      "componentType": 5123,
      "count": 2400,
      "type": "SCALAR"
    }
  ]
}